<svg width="16" height="18" viewBox="0 0 16 18" fill="none" xmlns="http://www.w3.org/2000/svg">
<path d="M7.42135 3.02161C7.42135 2.98072 7.42135 2.95431 7.42135 2.9279C7.42135 2.29783 7.42015 1.66776 7.42202 1.03768C7.42296 0.721709 7.66946 0.466194 7.97816 0.454397C8.30371 0.442064 8.57764 0.704549 8.57831 1.03339C8.57964 1.65676 8.57871 2.28013 8.57871 2.9035C8.57871 2.99359 8.57964 2.99466 8.65414 2.95029C9.06971 2.70241 9.48475 2.4536 9.90045 2.206C10.2584 1.99285 10.6979 2.18723 10.7785 2.59369C10.8263 2.83393 10.7122 3.07443 10.4843 3.21103C10.0577 3.46654 9.63067 3.72139 9.204 3.97677C9.01461 4.09018 8.82602 4.20494 8.63569 4.31674C8.59422 4.34114 8.57777 4.36942 8.57777 4.41822C8.57898 5.51307 8.57857 6.60779 8.57884 7.70264C8.57884 7.77517 8.585 7.77825 8.6488 7.74138C9.56527 7.21038 10.4803 6.67696 11.3998 6.15159C11.508 6.08979 11.5473 6.02692 11.5459 5.90358C11.5419 5.55972 11.5523 5.21573 11.5586 4.87187C11.5649 4.53029 11.573 4.18871 11.5804 3.84714C11.5871 3.53505 11.836 3.28436 12.1431 3.28047C12.4618 3.27645 12.7321 3.51749 12.7344 3.83132C12.7375 4.24207 12.722 4.65296 12.7147 5.06384C12.7133 5.15098 12.7143 5.23812 12.7113 5.32512C12.7094 5.37888 12.727 5.38089 12.7685 5.35663C13.0361 5.20032 13.3046 5.04534 13.5729 4.89011C13.8566 4.72602 14.1399 4.56099 14.4245 4.39851C14.6512 4.26915 14.9598 4.32827 15.1373 4.53217C15.3139 4.73513 15.3214 5.04347 15.1576 5.26359C15.0971 5.34496 15.0165 5.39859 14.9311 5.44792C14.3964 5.75692 13.8615 6.06579 13.3268 6.37493C13.3176 6.38029 13.3093 6.38713 13.2917 6.3996C13.3808 6.44987 13.4633 6.49652 13.546 6.54291C13.9173 6.75163 14.2887 6.95996 14.6598 7.16896C14.9424 7.32822 15.0399 7.67074 14.8866 7.96405C14.7506 8.22439 14.4007 8.34009 14.128 8.19745C13.8001 8.02599 13.4809 7.83817 13.1583 7.65693C12.8278 7.47139 12.4972 7.28572 12.1674 7.09898C12.1313 7.07847 12.1024 7.08222 12.0682 7.10206C11.1849 7.6147 10.3013 8.12667 9.41774 8.63877C9.35019 8.67791 9.28358 8.71867 9.2147 8.75526C9.16815 8.77993 9.17163 8.79468 9.2151 8.81961C9.43566 8.94603 9.65501 9.07459 9.8749 9.20208C10.2647 9.4277 10.6547 9.65318 11.0446 9.87854C11.3804 10.0728 11.7167 10.2662 12.0517 10.4618C12.0932 10.4861 12.1246 10.4877 12.1675 10.4634C12.8054 10.1012 13.4441 9.74019 14.0833 9.38038C14.3513 9.22956 14.7036 9.33305 14.8612 9.60573C15.0189 9.87867 14.9241 10.2326 14.6422 10.3969C14.3533 10.5654 14.0603 10.7266 13.7691 10.8911C13.6234 10.9733 13.4783 11.0562 13.332 11.1372C13.2899 11.1605 13.2836 11.1755 13.3303 11.2025C13.7691 11.4548 14.2073 11.708 14.6453 11.9618C14.7765 12.0378 14.9093 12.1115 15.036 12.1945C15.2261 12.3192 15.3146 12.5724 15.2579 12.8038C15.2016 13.0333 15.008 13.2059 14.7825 13.2364C14.6361 13.2563 14.5043 13.223 14.3791 13.1505C13.8697 12.8554 13.3604 12.5604 12.8505 12.2661C12.8227 12.25 12.792 12.2137 12.7629 12.23C12.7325 12.2471 12.7502 12.2917 12.7506 12.3239C12.7554 12.6991 12.7602 13.0743 12.7682 13.4496C12.7709 13.5745 12.7878 13.6997 12.7685 13.824C12.722 14.1236 12.459 14.3467 12.1783 14.3287C11.8563 14.3081 11.62 14.0653 11.6134 13.7436C11.6054 13.3482 11.6016 12.9529 11.5942 12.5577C11.588 12.2317 11.578 11.9058 11.5724 11.5797C11.5715 11.5308 11.5463 11.5085 11.5096 11.4874C11.0171 11.2032 10.5251 10.9183 10.0327 10.6338C9.57128 10.3673 9.1097 10.1009 8.64799 9.8347C8.58219 9.79676 8.57924 9.7981 8.57924 9.87264C8.57898 10.9652 8.57938 12.0578 8.57804 13.1504C8.57804 13.1992 8.59516 13.228 8.63609 13.2524C9.17631 13.5742 9.71587 13.8973 10.2554 14.2203C10.3416 14.2717 10.4276 14.3235 10.5126 14.3766C10.7852 14.547 10.8687 14.8981 10.7032 15.1752C10.5434 15.4429 10.1865 15.5312 9.91222 15.3683C9.49237 15.119 9.07386 14.8674 8.65441 14.6172C8.63422 14.6051 8.61335 14.5782 8.58994 14.5915C8.56654 14.6047 8.57924 14.6367 8.57924 14.66C8.57857 15.2878 8.57991 15.9157 8.57804 16.5435C8.5771 16.8711 8.2993 17.1346 7.97522 17.1201C7.66558 17.1063 7.42255 16.8516 7.42175 16.5342C7.42015 15.9333 7.42148 15.3321 7.42068 14.7312C7.42068 14.6966 7.4386 14.6478 7.40918 14.6306C7.38029 14.6137 7.34605 14.6523 7.31649 14.67C6.91817 14.9077 6.52026 15.1461 6.12275 15.385C5.90246 15.5174 5.6815 15.5212 5.4683 15.3769C5.12603 15.1454 5.13793 14.6322 5.49197 14.4108C5.79252 14.2228 6.09934 14.0449 6.4035 13.8626C6.72677 13.6689 7.04952 13.4744 7.374 13.2825C7.42296 13.2536 7.42148 13.2135 7.42148 13.1682C7.42122 12.1114 7.42122 11.0545 7.42122 9.99771C7.42122 9.95522 7.42162 9.91285 7.42108 9.87036C7.42028 9.79971 7.41587 9.79663 7.35581 9.83108C7.20494 9.91755 7.05433 10.0047 6.90386 10.0918C6.42142 10.3711 5.93897 10.6504 5.45666 10.9297C5.14408 11.1107 4.83177 11.292 4.51839 11.4718C4.48228 11.4925 4.47118 11.5181 4.46944 11.5579C4.457 11.837 4.46034 12.1162 4.45553 12.3953C4.44777 12.8486 4.44055 13.302 4.42971 13.7552C4.42249 14.0573 4.17612 14.3083 3.88226 14.3199C3.56661 14.3322 3.2963 14.1121 3.27837 13.7993C3.26313 13.5326 3.28038 13.2639 3.28372 12.9961C3.28693 12.7392 3.29175 12.4823 3.29322 12.2255C3.29362 12.1668 3.25724 12.2052 3.24146 12.2142C3.08416 12.303 2.92781 12.3933 2.77145 12.4838C2.38946 12.705 2.00532 12.9229 1.62626 13.1493C1.2852 13.353 0.912563 13.1953 0.781084 12.9162C0.648937 12.6357 0.756875 12.3066 1.02585 12.1519C1.5535 11.8484 2.07955 11.5421 2.60587 11.2363C2.6805 11.1928 2.6793 11.18 2.60279 11.1369C2.18308 10.9007 1.76202 10.6668 1.34418 10.4272C0.993617 10.2264 0.945198 9.76056 1.24199 9.48709C1.42243 9.32072 1.70077 9.29552 1.92761 9.42327C2.55317 9.77571 3.1794 10.1268 3.80415 10.4805C3.85083 10.5069 3.88387 10.4996 3.92614 10.4751C4.84796 9.94007 5.77031 9.40598 6.69267 8.87189C6.83859 8.78744 6.83966 8.78596 6.69347 8.70124C6.00451 8.30242 5.31502 7.90467 4.62579 7.50638C4.40764 7.38037 4.18923 7.25475 3.97228 7.12646C3.92988 7.10139 3.89818 7.1038 3.85632 7.12753C3.21444 7.49177 2.57216 7.85547 1.92881 8.21702C1.65382 8.37159 1.29951 8.2677 1.14596 7.99234C0.989872 7.71229 1.08738 7.36213 1.36786 7.2026C1.80389 6.9546 2.24086 6.70793 2.67716 6.46033C2.69588 6.44974 2.72611 6.44464 2.72651 6.42051C2.72705 6.39222 2.69454 6.38686 2.67435 6.3752C2.12048 6.05467 1.56501 5.73668 1.01274 5.41347C0.751391 5.26037 0.656427 4.9515 0.774798 4.67441C0.907213 4.36433 1.30085 4.23765 1.59296 4.4075C2.1269 4.71798 2.66231 5.02591 3.19732 5.33464C3.26139 5.37164 3.26326 5.37097 3.26192 5.29496C3.25336 4.81262 3.24159 4.33028 3.23638 3.84794C3.2341 3.6317 3.33535 3.46507 3.51913 3.35487C3.90045 3.12617 4.3829 3.39764 4.39226 3.84432C4.39842 4.13241 4.40176 4.4205 4.40724 4.70859C4.4154 5.13731 4.4257 5.56603 4.43159 5.99474C4.43239 6.05628 4.47144 6.07411 4.51117 6.09716C4.9143 6.33096 5.31756 6.56449 5.72096 6.79788C6.25944 7.10943 6.79806 7.42085 7.33655 7.73227C7.35006 7.74004 7.3637 7.74782 7.37721 7.75546C7.40998 7.77396 7.42202 7.76029 7.42135 7.72677C7.42108 7.71337 7.42148 7.69996 7.42148 7.68655C7.42148 6.61181 7.42095 5.5372 7.42282 4.46246C7.42296 4.39825 7.40182 4.36353 7.34645 4.33082C6.94118 4.09179 6.53845 3.84861 6.13465 3.60704C5.93563 3.48799 5.73714 3.36801 5.53691 3.25098C5.20374 3.05619 5.11814 2.65442 5.34913 2.3615C5.52394 2.13977 5.85257 2.08441 6.10509 2.23536C6.51665 2.48135 6.92767 2.72815 7.33896 2.97442C7.3617 2.98809 7.38484 3.00083 7.42135 3.02161Z" fill="#959595"/>
</svg>
