<svg width="48" height="48" viewBox="0 0 48 48" fill="none" xmlns="http://www.w3.org/2000/svg">
<path d="M33.5 7.12V4C33.5 3.18 32.82 2.5 32 2.5C31.18 2.5 30.5 3.18 30.5 4V7H17.5V4C17.5 3.18 16.82 2.5 16 2.5C15.18 2.5 14.5 3.18 14.5 4V7.12C9.09997 7.62 6.47997 10.84 6.07997 15.62C6.03997 16.2 6.51997 16.68 7.07997 16.68H40.92C41.5 16.68 41.98 16.18 41.92 15.62C41.52 10.84 38.9 7.62 33.5 7.12Z" fill="#1572D3"/>
<path d="M40 19.68H8C6.9 19.68 6 20.58 6 21.68V34C6 40 9 44 16 44H32C39 44 42 40 42 34V21.68C42 20.58 41.1 19.68 40 19.68ZM18.42 36.42C18.32 36.5 18.22 36.6 18.12 36.66C18 36.74 17.88 36.8 17.76 36.84C17.64 36.9 17.52 36.94 17.4 36.96C17.26 36.98 17.14 37 17 37C16.74 37 16.48 36.94 16.24 36.84C15.98 36.74 15.78 36.6 15.58 36.42C15.22 36.04 15 35.52 15 35C15 34.48 15.22 33.96 15.58 33.58C15.78 33.4 15.98 33.26 16.24 33.16C16.6 33 17 32.96 17.4 33.04C17.52 33.06 17.64 33.1 17.76 33.16C17.88 33.2 18 33.26 18.12 33.34C18.22 33.42 18.32 33.5 18.42 33.58C18.78 33.96 19 34.48 19 35C19 35.52 18.78 36.04 18.42 36.42ZM18.42 29.42C18.04 29.78 17.52 30 17 30C16.48 30 15.96 29.78 15.58 29.42C15.22 29.04 15 28.52 15 28C15 27.48 15.22 26.96 15.58 26.58C16.14 26.02 17.02 25.84 17.76 26.16C18.02 26.26 18.24 26.4 18.42 26.58C18.78 26.96 19 27.48 19 28C19 28.52 18.78 29.04 18.42 29.42ZM25.42 36.42C25.04 36.78 24.52 37 24 37C23.48 37 22.96 36.78 22.58 36.42C22.22 36.04 22 35.52 22 35C22 34.48 22.22 33.96 22.58 33.58C23.32 32.84 24.68 32.84 25.42 33.58C25.78 33.96 26 34.48 26 35C26 35.52 25.78 36.04 25.42 36.42ZM25.42 29.42C25.32 29.5 25.22 29.58 25.12 29.66C25 29.74 24.88 29.8 24.76 29.84C24.64 29.9 24.52 29.94 24.4 29.96C24.26 29.98 24.14 30 24 30C23.48 30 22.96 29.78 22.58 29.42C22.22 29.04 22 28.52 22 28C22 27.48 22.22 26.96 22.58 26.58C22.76 26.4 22.98 26.26 23.24 26.16C23.98 25.84 24.86 26.02 25.42 26.58C25.78 26.96 26 27.48 26 28C26 28.52 25.78 29.04 25.42 29.42ZM32.42 36.42C32.04 36.78 31.52 37 31 37C30.48 37 29.96 36.78 29.58 36.42C29.22 36.04 29 35.52 29 35C29 34.48 29.22 33.96 29.58 33.58C30.32 32.84 31.68 32.84 32.42 33.58C32.78 33.96 33 34.48 33 35C33 35.52 32.78 36.04 32.42 36.42ZM32.42 29.42C32.32 29.5 32.22 29.58 32.12 29.66C32 29.74 31.88 29.8 31.76 29.84C31.64 29.9 31.52 29.94 31.4 29.96C31.26 29.98 31.12 30 31 30C30.48 30 29.96 29.78 29.58 29.42C29.22 29.04 29 28.52 29 28C29 27.48 29.22 26.96 29.58 26.58C29.78 26.4 29.98 26.26 30.24 26.16C30.6 26 31 25.96 31.4 26.04C31.52 26.06 31.64 26.1 31.76 26.16C31.88 26.2 32 26.26 32.12 26.34C32.22 26.42 32.32 26.5 32.42 26.58C32.78 26.96 33 27.48 33 28C33 28.52 32.78 29.04 32.42 29.42Z" fill="#1572D3"/>
</svg>
