<svg width="22" height="23" viewBox="0 0 22 23" fill="none" xmlns="http://www.w3.org/2000/svg">
<path d="M20.97 18.0519C20.97 18.4119 20.89 18.7819 20.72 19.1419C20.55 19.5019 20.33 19.8419 20.04 20.1619C19.55 20.7019 19.01 21.0919 18.4 21.3419C17.8 21.5919 17.15 21.7219 16.45 21.7219C15.43 21.7219 14.34 21.4819 13.19 20.9919C12.04 20.5019 10.89 19.8419 9.75 19.0119C8.6 18.1719 7.51 17.2419 6.47 16.2119C5.44 15.1719 4.51 14.0819 3.68 12.9419C2.86 11.8019 2.2 10.6619 1.72 9.53192C1.24 8.39192 1 7.30192 1 6.26192C1 5.58192 1.12 4.93192 1.36 4.33192C1.6 3.72192 1.98 3.16192 2.51 2.66192C3.15 2.03192 3.85 1.72192 4.59 1.72192C4.87 1.72192 5.15 1.78192 5.4 1.90192C5.66 2.02192 5.89 2.20192 6.07 2.46192L8.39 5.73192C8.57 5.98192 8.7 6.21192 8.79 6.43192C8.88 6.64192 8.93 6.85192 8.93 7.04192C8.93 7.28192 8.86 7.52192 8.72 7.75192C8.59 7.98192 8.4 8.22192 8.16 8.46192L7.4 9.25192C7.29 9.36192 7.24 9.49192 7.24 9.65192C7.24 9.73192 7.25 9.80192 7.27 9.88192C7.3 9.96192 7.33 10.0219 7.35 10.0819C7.53 10.4119 7.84 10.8419 8.28 11.3619C8.73 11.8819 9.21 12.4119 9.73 12.9419C10.27 13.4719 10.79 13.9619 11.32 14.4119C11.84 14.8519 12.27 15.1519 12.61 15.3319C12.66 15.3519 12.72 15.3819 12.79 15.4119C12.87 15.4419 12.95 15.4519 13.04 15.4519C13.21 15.4519 13.34 15.3919 13.45 15.2819L14.21 14.5319C14.46 14.2819 14.7 14.0919 14.93 13.9719C15.16 13.8319 15.39 13.7619 15.64 13.7619C15.83 13.7619 16.03 13.8019 16.25 13.8919C16.47 13.9819 16.7 14.1119 16.95 14.2819L20.26 16.6319C20.52 16.8119 20.7 17.0219 20.81 17.2719C20.91 17.5219 20.97 17.7719 20.97 18.0519Z" stroke="#D6D6D6" stroke-width="1.5" stroke-miterlimit="10"/>
</svg>
