<svg width="48" height="48" viewBox="0 0 48 48" fill="none" xmlns="http://www.w3.org/2000/svg">
<path d="M43.5 16.0002C43.5 16.8202 42.82 17.5002 42 17.5002H6C5.18 17.5002 4.5 16.8202 4.5 16.0002C4.5 15.1802 5.18 14.5002 6 14.5002H8.04L8.8 10.8802C9.52 7.38016 11.02 4.16016 16.98 4.16016H31.02C36.98 4.16016 38.48 7.38016 39.2 10.8802L39.96 14.5002H42C42.82 14.5002 43.5 15.1802 43.5 16.0002Z" fill="#1572D3"/>
<path d="M44.3592 27.32C44.0592 24.02 43.1792 20.5 36.7592 20.5H11.2392C4.8192 20.5 3.9592 24.02 3.6392 27.32L2.5192 39.5C2.3792 41.02 2.8792 42.54 3.9192 43.68C4.9792 44.84 6.4792 45.5 8.0792 45.5H11.8392C15.0792 45.5 15.6992 43.64 16.0992 42.42L16.4992 41.22C16.9592 39.84 17.0792 39.5 18.8792 39.5H29.1192C30.9192 39.5 30.9792 39.7 31.4992 41.22L31.8992 42.42C32.2992 43.64 32.9192 45.5 36.1592 45.5H39.9192C41.4992 45.5 43.0192 44.84 44.0792 43.68C45.1192 42.54 45.6192 41.02 45.4792 39.5L44.3592 27.32ZM17.9992 31.5H11.9992C11.1792 31.5 10.4992 30.82 10.4992 30C10.4992 29.18 11.1792 28.5 11.9992 28.5H17.9992C18.8192 28.5 19.4992 29.18 19.4992 30C19.4992 30.82 18.8192 31.5 17.9992 31.5ZM35.9992 31.5H29.9992C29.1792 31.5 28.4992 30.82 28.4992 30C28.4992 29.18 29.1792 28.5 29.9992 28.5H35.9992C36.8192 28.5 37.4992 29.18 37.4992 30C37.4992 30.82 36.8192 31.5 35.9992 31.5Z" fill="#1572D3"/>
</svg>
