<svg width="18" height="16" viewBox="0 0 18 16" fill="none" xmlns="http://www.w3.org/2000/svg">
<path d="M8.41673 15.6327C6.19404 15.6327 3.97135 15.6329 1.74845 15.6325C1.51468 15.6325 1.28324 15.6122 1.06701 15.5139C0.810632 15.3977 0.668807 15.2127 0.669441 14.9143C0.67388 12.5893 0.677684 10.2645 0.66775 7.93954C0.665425 7.41789 0.820777 6.95712 1.08181 6.52087C1.30057 6.15542 1.59014 5.84726 1.88605 5.54459C3.04199 4.36265 4.37442 3.42208 5.83451 2.65547C6.72858 2.18624 7.6571 1.79882 8.61457 1.48093C9.68576 1.1252 10.7806 0.863958 11.8943 0.68113C12.5823 0.568473 13.2741 0.487521 13.9688 0.433413C14.8715 0.363029 15.7766 0.349713 16.6817 0.368313C17.0932 0.376767 17.3764 0.732702 17.3293 1.14317C17.2739 1.62529 17.2335 2.1091 17.186 2.59206C17.1401 3.05769 17.0923 3.52311 17.0471 3.98874C17.0008 4.46495 16.9571 4.94115 16.911 5.41735C16.8668 5.876 16.8214 6.33466 16.7761 6.79332C16.7372 7.18878 16.6977 7.58424 16.6588 7.97991C16.6115 8.45949 16.5643 8.93907 16.5174 9.41865C16.4726 9.87731 16.4287 10.336 16.3836 10.7944C16.3373 11.267 16.2898 11.7394 16.2433 12.212C16.205 12.6005 16.1697 12.9894 16.1296 13.3779C16.075 13.9061 16.0438 14.4375 15.9603 14.9619C15.8901 15.4021 15.5936 15.6331 15.1484 15.6329C12.9046 15.6325 10.6606 15.6327 8.41673 15.6327ZM3.04833 7.87C3.0739 7.9036 3.11068 7.90382 3.14281 7.91058C3.41187 7.96849 3.68115 8.00125 3.95909 7.98075C4.55154 7.937 5.0419 7.69478 5.43546 7.25472C5.49126 7.19237 5.54812 7.17208 5.62759 7.17208C7.86402 7.17335 10.1007 7.17314 12.3371 7.17292C13.4112 7.17292 14.4856 7.17166 15.5597 7.17483C15.6633 7.17504 15.6982 7.14672 15.7037 7.03955C15.7168 6.79036 15.7472 6.54222 15.7696 6.29344C15.81 5.84853 15.8499 5.40382 15.8895 4.9589C15.921 4.60508 15.952 4.25105 15.9823 3.89723C16.022 3.43476 16.0622 2.9723 16.0993 2.50963C16.1262 2.17652 16.1454 1.84278 16.1746 1.51009C16.1896 1.34016 16.1854 1.32832 16.0146 1.326C15.4194 1.31754 14.8257 1.33847 14.2317 1.38285C13.6805 1.42407 13.1318 1.48389 12.5857 1.56526C11.7603 1.68806 10.9434 1.85462 10.1362 2.06809C8.91027 2.39232 7.72368 2.82075 6.58908 3.38847C5.68233 3.84227 4.82864 4.3804 4.03835 5.01681C3.87391 5.14934 3.71518 5.28905 3.55687 5.42876C3.46154 5.51288 3.4645 5.51521 3.56828 5.57862C3.6133 5.60609 3.65853 5.63357 3.70081 5.66527C4.17215 6.01804 4.39873 6.49825 4.43973 7.07718C4.44713 7.18201 4.39682 7.24923 4.32644 7.31306C4.07872 7.53816 3.78958 7.68569 3.46873 7.77256C3.33134 7.80955 3.19079 7.83724 3.04833 7.87ZM8.40025 14.526C8.40025 14.5262 8.40025 14.5262 8.40025 14.5264C10.5625 14.5264 12.7247 14.5264 14.887 14.526C14.9324 14.526 14.9793 14.5264 15.0233 14.5163C15.1205 14.4941 15.1954 14.4085 15.1888 14.3364C15.1808 14.2491 15.1062 14.1957 14.9869 14.1933C14.913 14.1919 14.839 14.1925 14.765 14.1925C13.5465 14.1925 12.3282 14.1929 11.1097 14.1929C8.05298 14.1929 4.99625 14.1927 1.93973 14.1927C1.89408 14.1927 1.84779 14.1912 1.80256 14.1963C1.71442 14.206 1.66031 14.2559 1.65207 14.3455C1.64382 14.437 1.69455 14.4933 1.77762 14.5163C1.82052 14.5283 1.86829 14.5258 1.91373 14.5258C4.07576 14.5262 6.23801 14.526 8.40025 14.526ZM13.7684 8.5527C13.7684 8.55249 13.7684 8.55249 13.7684 8.55228C13.4448 8.55228 13.121 8.55122 12.7974 8.55249C12.5542 8.55355 12.3777 8.71608 12.3718 8.94161C12.366 9.15678 12.5394 9.34066 12.7776 9.34299C13.432 9.34933 14.0863 9.34911 14.7405 9.34277C14.9867 9.34045 15.1541 9.16079 15.1478 8.93527C15.1417 8.71228 14.9637 8.55312 14.7181 8.5527C14.4017 8.55228 14.0851 8.5527 13.7684 8.5527Z" fill="#959595"/>
</svg>
