<svg width="24" height="25" viewBox="0 0 24 25" fill="none" xmlns="http://www.w3.org/2000/svg">
<path d="M18 2.5H6C4.34 2.5 3 3.83 3 5.47V16.38C3 18.02 4.34 19.35 6 19.35H6.76C7.56 19.35 8.32 19.66 8.88 20.22L10.59 21.91C11.37 22.68 12.64 22.68 13.42 21.91L15.13 20.22C15.69 19.66 16.46 19.35 17.25 19.35H18C19.66 19.35 21 18.02 21 16.38V5.47C21 3.83 19.66 2.5 18 2.5ZM10.38 13.51C10.79 13.51 11.13 13.85 11.13 14.26C11.13 14.67 10.79 15.01 10.38 15.01H7.7C7.26 15.01 6.85 14.8 6.59 14.44C6.34 14.1 6.28 13.68 6.4 13.28C6.75 12.21 7.61 11.63 8.37 11.11C9.17 10.57 9.62 10.23 9.62 9.65C9.62 9.13 9.2 8.71 8.68 8.71C8.16 8.71 7.75 9.14 7.75 9.66C7.75 10.07 7.41 10.41 7 10.41C6.59 10.41 6.25 10.07 6.25 9.66C6.25 8.32 7.34 7.22 8.69 7.22C10.04 7.22 11.13 8.31 11.13 9.66C11.13 11.07 10.07 11.79 9.22 12.37C8.69 12.73 8.19 13.07 7.94 13.52H10.38V13.51ZM17 13.58H16.79V14.27C16.79 14.68 16.45 15.02 16.04 15.02C15.63 15.02 15.29 14.68 15.29 14.27V13.58H13.33C13.33 13.58 13.33 13.58 13.32 13.58C12.83 13.58 12.38 13.32 12.13 12.9C11.88 12.47 11.88 11.94 12.13 11.52C12.81 10.35 13.6 9.02 14.32 7.86C14.64 7.35 15.25 7.12 15.82 7.28C16.39 7.45 16.79 7.97 16.78 8.57V12.09H17C17.41 12.09 17.75 12.43 17.75 12.84C17.75 13.25 17.41 13.58 17 13.58Z" fill="#1572D3"/>
<path d="M15.29 12.08V9.14001C14.7 10.1 14.09 11.13 13.54 12.07H15.29V12.08Z" fill="#1572D3"/>
</svg>
