<svg width="24" height="25" viewBox="0 0 24 25" fill="none" xmlns="http://www.w3.org/2000/svg">
<path d="M11.9999 14.5C6.98991 14.5 2.90991 17.86 2.90991 22C2.90991 22.28 3.12991 22.5 3.40991 22.5H20.5899C20.8699 22.5 21.0899 22.28 21.0899 22C21.0899 17.86 17.0099 14.5 11.9999 14.5Z" fill="#1572D3"/>
<path d="M12 2.5C10.82 2.5 9.74 2.91 8.88 3.6C7.73 4.51 7 5.92 7 7.5C7 8.44 7.26 9.32 7.73 10.07C8.59 11.52 10.17 12.5 12 12.5C13.26 12.5 14.41 12.04 15.29 11.25C15.68 10.92 16.02 10.52 16.28 10.07C16.74 9.32 17 8.44 17 7.5C17 4.74 14.76 2.5 12 2.5ZM14.59 6.96L11.92 9.42C11.74 9.59 11.51 9.67 11.28 9.67C11.04 9.67 10.8 9.58 10.62 9.4L9.39 8.16C9.02 7.79 9.02 7.2 9.39 6.83C9.76 6.46 10.35 6.46 10.72 6.83L11.31 7.42L13.32 5.57C13.7 5.22 14.29 5.24 14.64 5.62C14.99 6.01 14.97 6.61 14.59 6.96Z" fill="#1572D3"/>
</svg>
