<svg width="24" height="25" viewBox="0 0 24 25" fill="none" xmlns="http://www.w3.org/2000/svg">
<path d="M11.94 2.71001L9.52995 8.32001H7.11995C6.71995 8.32001 6.32995 8.35001 5.94995 8.43001L6.94995 6.03001L6.98995 5.94001L7.04995 5.78001C7.07995 5.71001 7.09995 5.65001 7.12995 5.60001C8.28995 2.91001 9.58995 2.07001 11.94 2.71001Z" fill="#1572D3"/>
<path d="M18.7301 8.58999L18.7101 8.57999C18.1101 8.40999 17.5001 8.31999 16.8801 8.31999H10.6201L12.8701 3.08999L12.9001 3.01999C13.0401 3.06999 13.1901 3.13999 13.3401 3.18999L15.5501 4.11999C16.7801 4.62999 17.6401 5.15999 18.1701 5.79999C18.2601 5.91999 18.3401 6.02999 18.4201 6.15999C18.5101 6.29999 18.5801 6.43999 18.6201 6.58999C18.6601 6.67999 18.6901 6.75999 18.7101 6.84999C18.8601 7.35999 18.8701 7.93999 18.7301 8.58999Z" fill="#1572D3"/>
<path d="M12.52 18.16H12.77C13.07 18.16 13.32 17.89 13.32 17.56C13.32 17.14 13.2 17.08 12.94 16.98L12.52 16.83V18.16Z" fill="#1572D3"/>
<path d="M18.29 10.02C17.84 9.89001 17.37 9.82001 16.88 9.82001H7.11999C6.43999 9.82001 5.79999 9.95001 5.19999 10.21C3.45999 10.96 2.23999 12.69 2.23999 14.7V16.65C2.23999 16.89 2.25999 17.12 2.28999 17.36C2.50999 20.54 4.20999 22.24 7.38999 22.45C7.61999 22.48 7.84999 22.5 8.09999 22.5H15.9C19.6 22.5 21.55 20.74 21.74 17.24C21.75 17.05 21.76 16.85 21.76 16.65V14.7C21.76 12.49 20.29 10.63 18.29 10.02ZM13.28 16C13.74 16.16 14.36 16.5 14.36 17.56C14.36 18.47 13.65 19.2 12.77 19.2H12.52V19.42C12.52 19.71 12.29 19.94 12 19.94C11.71 19.94 11.48 19.71 11.48 19.42V19.2H11.39C10.43 19.2 9.63999 18.39 9.63999 17.39C9.63999 17.1 9.86999 16.87 10.16 16.87C10.45 16.87 10.68 17.1 10.68 17.39C10.68 17.81 11 18.16 11.39 18.16H11.48V16.47L10.72 16.2C10.26 16.04 9.63999 15.7 9.63999 14.64C9.63999 13.73 10.35 13 11.23 13H11.48V12.78C11.48 12.49 11.71 12.26 12 12.26C12.29 12.26 12.52 12.49 12.52 12.78V13H12.61C13.57 13 14.36 13.81 14.36 14.81C14.36 15.1 14.13 15.33 13.84 15.33C13.55 15.33 13.32 15.1 13.32 14.81C13.32 14.39 13 14.04 12.61 14.04H12.52V15.73L13.28 16Z" fill="#1572D3"/>
<path d="M10.6799 14.64C10.6799 15.06 10.7999 15.12 11.0599 15.22L11.4799 15.37V14.04H11.2299C10.9199 14.04 10.6799 14.31 10.6799 14.64Z" fill="#1572D3"/>
</svg>
