<svg width="292" height="310" viewBox="0 0 292 310" fill="none" xmlns="http://www.w3.org/2000/svg">
<path opacity="0.1" d="M157.324 310V196.783C157.324 144.667 168.547 101.536 190.993 67.3913C214.337 33.2463 248.006 10.7826 292 0V47.1739C265.065 54.3623 245.761 67.8406 234.089 87.6087C222.418 106.478 215.684 131.188 213.888 161.739H265.065V310H157.324ZM0 310V196.783C0 144.667 11.223 101.536 33.6689 67.3913C57.0127 33.2463 90.6816 10.7826 134.676 0V47.1739C107.74 54.3623 88.437 67.8406 76.7651 87.6087C65.0932 106.478 58.3594 131.188 56.5638 161.739H107.74V310H0Z" fill="#1572D3"/>
</svg>
