<svg width="24" height="27" viewBox="0 0 24 27" fill="none" xmlns="http://www.w3.org/2000/svg">
<path fill-rule="evenodd" clip-rule="evenodd" d="M12.8619 22.5346C11.6945 22.5346 10.5781 22.3139 9.55404 21.9103L5.87842 24.3017C7.88879 25.6048 10.2877 26.3611 12.8619 26.3611C17.6219 26.3611 21.7785 23.7755 24.0019 19.932L20.6884 18.0178C19.125 20.7184 16.2056 22.5346 12.8619 22.5346Z" fill="#1572D3"/>
<path fill-rule="evenodd" clip-rule="evenodd" d="M4.27734 3.92261L8.06235 13.5011L4.27734 23.0778L10.2538 19.189L19.0006 13.5011L10.2538 7.81135L4.27734 3.92261Z" fill="#1572D3"/>
<path fill-rule="evenodd" clip-rule="evenodd" d="M12.862 4.46567C16.2057 4.46567 19.1251 6.2818 20.6885 8.98242L24.002 7.06822C21.7766 3.22474 17.622 0.63916 12.862 0.63916C10.2858 0.63916 7.88885 1.39541 5.87659 2.69857L9.5541 5.0899C10.5781 4.68632 11.6927 4.46567 12.862 4.46567Z" fill="#1572D3"/>
<path fill-rule="evenodd" clip-rule="evenodd" d="M2.82885 21.5481L4.58274 17.1238L6.0198 13.4991L4.58274 9.87624L2.82885 5.4519C1.05988 7.65464 0 10.4533 0 13.501C0 16.5467 1.05988 19.3454 2.82885 21.5481Z" fill="#1572D3"/>
</svg>
