<svg width="144" height="51" viewBox="0 0 144 51" fill="none" xmlns="http://www.w3.org/2000/svg">
<path d="M118.693 50.1219C113 50.1219 107.559 48.2517 103.163 44.7631C98.767 48.2157 93.326 50.1219 87.6328 50.1219C81.9396 50.1219 76.4987 48.2517 72.1027 44.7631C67.7067 48.2157 62.2657 50.1219 56.5725 50.1219C50.8793 50.1219 45.4384 48.2517 41.0424 44.7631C36.6464 48.2157 31.2054 50.1219 25.5122 50.1219C18.8822 50.1219 12.6485 47.6043 7.92823 43.0009C3.13587 38.3974 0.469438 32.2474 0.36134 25.7019C0.253241 19.1203 2.70347 12.8984 7.27964 8.11513C11.8198 3.36779 17.9814 0.634474 24.6114 0.418686H24.7195H26.305C31.7099 0.598509 36.8266 2.46867 41.0064 5.74146C45.1501 2.46867 50.2668 0.598509 55.6717 0.418686L55.7798 3.22393V0.418686H57.3653C62.7702 0.598509 67.8868 2.46867 72.0666 5.74146C76.2465 2.46867 81.3271 0.598509 86.768 0.418686H86.8761H88.4616C93.8665 0.598509 98.9832 2.46867 103.163 5.74146C107.307 2.46867 112.423 0.598509 117.864 0.418686L117.972 3.22393V0.418686H119.558C126.152 0.634474 132.314 3.36779 136.89 8.11513C141.466 12.8625 143.916 19.1203 143.808 25.6659C143.7 32.2474 141.033 38.3974 136.313 43.0009C131.521 47.6043 125.287 50.1219 118.693 50.1219ZM107.271 40.6991C110.478 43.0368 114.441 44.4394 118.693 44.4394C129.179 44.4394 137.863 35.9878 138.007 25.6299C138.187 15.2721 129.827 6.56865 119.378 6.17303H118.008C114.009 6.31689 110.333 7.68355 107.307 9.8774C110.91 14.373 112.784 19.9115 112.712 25.7019C112.568 31.2045 110.694 36.4193 107.271 40.6991ZM76.2104 40.6991C79.4173 43.0368 83.381 44.4394 87.6328 44.4394C91.8847 44.4394 95.8123 43.0368 99.0192 40.6991C95.6321 36.4553 93.7224 31.2045 93.6143 25.7019C93.5062 19.9115 95.4159 14.373 99.0192 9.8774C95.9924 7.68355 92.3171 6.31689 88.3175 6.17303H86.9482C82.9486 6.31689 79.2732 7.68355 76.2465 9.8774C79.8497 14.373 81.7234 19.9115 81.6514 25.7019C81.5072 31.2045 79.5975 36.4193 76.2104 40.6991ZM45.1141 40.6991C48.321 43.0368 52.2846 44.4394 56.5365 44.4394C60.7884 44.4394 64.716 43.0368 67.9229 40.6991C64.5358 36.4553 62.626 31.2045 62.5179 25.7019C62.4099 19.9115 64.3196 14.373 67.9229 9.8774C64.8961 7.68355 61.2208 6.31689 57.2211 6.17303H55.8519C51.8522 6.31689 48.1769 7.68355 45.1501 9.8774C48.7534 14.373 50.6271 19.9115 50.5551 25.7019C50.4109 31.2045 48.5012 36.4193 45.1141 40.6991ZM24.7556 6.13707C14.306 6.49672 5.94643 15.2361 6.12659 25.594C6.30675 35.9518 14.9546 44.4035 25.4402 44.4035C29.6921 44.4035 33.6196 43.0009 36.8265 40.6632C33.4395 36.4193 31.5297 31.1685 31.4216 25.6659C31.3135 19.8756 33.2233 14.337 36.8265 9.84143C33.7998 7.64759 30.1244 6.28093 26.1248 6.13707H24.7556ZM72.0666 13.9414C69.6164 17.2142 68.2111 21.2422 68.2832 25.594C68.3553 29.6939 69.7605 33.5062 72.0666 36.5992C74.3727 33.5062 75.778 29.6939 75.8501 25.594C75.9222 21.2422 74.4808 17.2142 72.0666 13.9414ZM40.9703 13.9414C38.5201 17.2142 37.1148 21.2422 37.1869 25.594C37.2589 29.6939 38.6642 33.5062 40.9703 36.5992C43.2764 33.5062 44.6817 29.6939 44.7538 25.594C44.8258 21.2422 43.4206 17.2142 40.9703 13.9414ZM103.127 13.9414C100.677 17.2142 99.2714 21.2422 99.3435 25.594C99.4156 29.6939 100.821 33.5062 103.127 36.5992C105.433 33.5062 106.838 29.6939 106.91 25.594C107.018 21.2422 105.577 17.2142 103.127 13.9414Z" fill="#5F5F5F"/>
</svg>
