<svg width="225" height="18" viewBox="0 0 225 18" fill="none" xmlns="http://www.w3.org/2000/svg">
<path d="M3.8947 3.12799L11.6136 16.9353L20.5365 16.9586L28.1138 3.12799H31.9142V0.613327H20.4893V3.12799H23.794L18.2704 13.1866L12.6759 3.12799H16.6888V0.613327H0.0942383V3.12799H3.8947Z" fill="#5F5F5F"/>
<path d="M102.163 3.12801V0.636635H117.459V3.12801H113.658V14.4207H117.199C120.48 14.4207 122.628 12.2786 122.628 9.39138H125.154V16.9586H102.186V14.3974H106.034V3.10473H102.163V3.12801Z" fill="#5F5F5F"/>
<path d="M65.0787 0.264069C57.407 0.264069 53.3232 4.03606 53.3232 8.78597C53.3232 13.5825 57.2417 17.4243 65.1259 17.4243C73.0101 17.4243 76.8814 13.5825 76.8814 8.78597C76.8814 4.05934 72.774 0.264069 65.0787 0.264069ZM65.0079 14.8398C62.1989 14.7932 60.9714 11.743 61.0186 8.69284C61.0658 5.54951 62.6001 2.80201 65.2203 2.84858C67.8405 2.89515 69.2332 5.68922 69.186 8.83254C69.1388 11.7896 67.8877 14.8864 65.0079 14.8398Z" fill="#5F5F5F"/>
<path d="M151.215 3.128L158.934 16.9353L167.857 16.9586L175.434 3.128H179.234V0.613335H167.809V3.128H171.114L165.59 13.1866L159.996 3.128H164.009V0.613335H147.414V3.128H151.215Z" fill="#5F5F5F"/>
<path d="M212.4 0.264069C204.728 0.264069 200.644 4.03606 200.644 8.78597C200.644 13.5825 204.563 17.4243 212.447 17.4243C220.331 17.4243 224.202 13.5825 224.202 8.78597C224.202 4.05934 220.095 0.264069 212.4 0.264069ZM212.329 14.8398C209.52 14.7932 208.292 11.743 208.34 8.69284C208.387 5.54951 209.921 2.80201 212.541 2.84858C215.162 2.89515 216.554 5.68922 216.507 8.83254C216.46 11.7896 215.209 14.8864 212.329 14.8398Z" fill="#5F5F5F"/>
</svg>
