<svg width="118" height="67" viewBox="0 0 118 67" fill="none" xmlns="http://www.w3.org/2000/svg">
<rect width="217.129" height="66.5394" transform="translate(0.811523 0.000579834)" fill="white"/>
<path d="M79.4704 21.1752H85.3918L98.6541 43.0605H92.3677L82.4716 26.3628L77.1992 35.198H85.7163L88.2714 39.3318H74.928L72.5351 43.0199H66.2487L79.4704 21.1752ZM183.784 43.101H190.071L192.464 39.4129H205.807L203.252 35.2791H194.735L200.007 26.4439L209.903 43.1416H216.19L202.927 21.2562H197.006L183.784 43.101ZM98.2891 32.1583V35.0764C98.4108 40.8315 101.655 43.2631 106.685 43.1416H123.232V38.6429H106.725C103.967 38.7239 103.764 36.8192 103.683 34.9143V32.1584V29.2809C103.764 27.5787 103.967 25.6334 106.725 25.6739H123.232V21.1753H106.685C101.655 21.0537 98.4513 23.5259 98.2891 29.2404V32.1583ZM161.113 25.8765H174.415C176.281 25.8765 177.214 26.687 177.214 28.2677C177.214 29.8888 176.281 30.6589 174.415 30.6589H162.491L163.546 35.3602H173.726C175.713 35.3196 176.849 36.6976 177.011 38.6025L177.173 43.1011H182.446C182.446 43.1011 182.405 38.8861 182.283 38.035C182.162 37.1839 181.797 34.8333 179.728 33.6985C184.595 30.4968 182.811 21.2158 175.835 21.2158H155.759V43.101H161.112L161.113 25.8765ZM139.333 43.101H143.997C149.756 42.9794 152.19 39.7371 152.068 34.7116V21.1752H146.796V35.8059C146.877 38.5618 144.93 38.7644 143.064 38.8455H139.333H135.399C133.696 38.7645 131.749 38.5618 131.79 35.8059V21.1752H126.395V34.7522C126.274 39.7777 128.748 42.9794 134.466 43.101H139.333ZM51.9053 30.9241C51.4592 22.7373 48.6606 16.7392 44.8482 13.4564C40.7113 9.93045 33.0054 8.55246 27.0434 8.59302C21.0815 8.55246 13.3756 9.93045 9.23863 13.4564C5.42625 16.7393 2.62772 22.7374 2.18161 30.9241C1.776 38.6244 3.43885 47.0138 7.81908 51.7556C12.037 56.4164 20.473 57.8754 27.0027 57.8754C33.5325 57.9159 41.9684 56.4164 46.1864 51.7556C50.5667 46.9733 52.27 38.5839 51.9053 30.9241ZM25.6237 10.6599C26.4349 10.6193 26.6376 10.6193 27.0027 10.6193C27.3677 10.6193 27.53 10.6193 28.3817 10.6599L28.4223 28.5734C28.1789 28.5734 25.8266 28.5734 25.5833 28.5734C25.5833 28.5734 25.5833 10.6599 25.6237 10.6599ZM5.46683 38.4621C5.22344 35.382 4.29066 24.1557 8.75195 17.7522C10.6582 14.9558 13.4566 13.0915 16.2956 12.1188C20.2297 10.7409 24.9343 10.6598 24.9343 10.6598C23.1093 15.1585 19.3375 24.8042 18.6074 26.9521C17.7152 29.5864 16.9445 31.086 16.174 35.8278C15.6872 39.7186 14.8356 49.4048 14.5922 53.6198C9.3197 51.1071 6.15623 46.3248 5.46683 38.4621ZM26.9622 55.8084C23.2715 55.7679 18.729 55.4032 15.1195 53.8631C16.3362 50.6208 22.1359 36.6791 25.34 31.2483C25.5833 31.2483 28.3817 31.2483 28.6251 31.2483C31.7886 36.6791 37.6288 50.6208 38.8457 53.8631C35.1953 55.4436 30.6934 55.7679 26.9622 55.8084ZM48.4982 38.422C47.8088 46.325 44.6452 51.0667 39.3728 53.6201C39.1295 49.4051 38.2778 39.7188 37.7911 35.8281C37.0205 31.0457 36.2499 29.5867 35.3576 26.9524C34.6277 24.8043 30.8558 15.1586 29.0307 10.66C29.0307 10.66 33.7354 10.741 37.6694 12.119C40.5084 13.0916 43.3069 14.9964 45.2131 17.7524C49.6744 24.1559 48.7415 35.3821 48.4982 38.422Z" fill="#5F5F5F"/>
</svg>
