<svg width="173" height="49" viewBox="0 0 173 49" fill="none" xmlns="http://www.w3.org/2000/svg">
<path d="M-25.5735 13.516C-25.4067 13.5079 -25.2399 13.493 -25.073 13.493C-19.4093 13.4917 -13.746 13.4917 -8.08228 13.4922C-7.48276 13.4922 -7.4819 13.493 -7.48147 14.0819C-7.48062 14.7898 -7.48957 15.4977 -7.47763 16.2056C-7.47293 16.4902 -7.5634 16.6157 -7.86637 16.6447C-8.69717 16.7245 -9.52243 16.8585 -10.3537 16.934C-11.4324 17.0321 -11.982 17.5685 -12.0204 18.7193C-12.0579 19.8378 -12.0255 20.9587 -12.034 22.0784C-12.0362 22.3553 -11.8843 22.3912 -11.6645 22.3899C-10.9566 22.3856 -10.2487 22.3886 -9.54078 22.3886C-5.94958 22.3886 -2.35839 22.3891 1.2328 22.3882C1.74698 22.3882 1.7487 22.3861 1.74912 21.8779C1.74955 20.8354 1.75595 19.7925 1.74528 18.7501C1.73376 17.6009 1.18842 17.0428 0.0384369 16.9314C-0.83077 16.8474 -1.69614 16.7228 -2.56449 16.6272C-2.77998 16.6033 -2.85594 16.4864 -2.85637 16.2965C-2.85893 15.4597 -2.85765 14.6234 -2.85679 13.7866C-2.85637 13.5801 -2.75353 13.4802 -2.54358 13.4917C-2.45398 13.4968 -2.36351 13.4909 -2.27347 13.4909C3.36422 13.4909 9.00233 13.4909 14.64 13.4909C15.2297 13.4909 15.2302 13.4917 15.2306 14.0878C15.231 14.7829 15.2225 15.4781 15.2344 16.1732C15.2391 16.4612 15.1764 16.6123 14.8414 16.646C13.8835 16.742 12.9268 16.8597 11.9757 17.0082C11.2874 17.1158 10.8824 17.5485 10.7663 18.2372C10.713 18.5529 10.6742 18.8713 10.6746 19.196C10.6797 22.9032 10.6797 26.6101 10.6746 30.3173C10.6742 30.6421 10.7122 30.9608 10.7681 31.2757C10.9093 32.0728 11.4534 32.4867 12.3618 32.5733C13.2182 32.6548 14.0704 32.7811 14.9255 32.8742C15.158 32.8993 15.2323 33.0107 15.231 33.2258C15.2268 34.0498 15.2263 34.8733 15.2306 35.6973C15.2319 35.9281 15.1282 36.0271 14.9029 36.016C14.8128 36.0118 14.7228 36.0169 14.6328 36.0169C8.99508 36.0169 3.35696 36.0169 -2.28074 36.0169C-2.85978 36.0169 -2.86106 36.016 -2.86234 35.4442C-2.86362 34.7491 -2.85722 34.054 -2.86447 33.3589C-2.86789 33.0619 -2.80174 32.8955 -2.44629 32.8622C-1.52631 32.776 -0.606747 32.6647 0.305559 32.517C1.15898 32.3788 1.63519 31.8454 1.6578 30.989C1.68938 29.8057 1.66677 28.6207 1.67402 27.4366C1.6753 27.2023 1.57331 27.1127 1.34801 27.1191C1.0907 27.1264 0.833403 27.1196 0.575668 27.1196C-3.44053 27.1196 -7.4563 27.1196 -11.4725 27.1196C-12.0323 27.1196 -12.0328 27.1204 -12.0332 27.6611C-12.0336 28.6263 -12.0293 29.5919 -12.0357 30.5571C-12.0375 30.8435 -11.9935 31.123 -11.9282 31.3969C-11.7575 32.1112 -11.2408 32.4837 -10.3933 32.5708C-9.53736 32.6583 -8.68564 32.7824 -7.82966 32.8695C-7.56126 32.8968 -7.47934 33.0158 -7.48147 33.2646C-7.4883 34.0498 -7.49257 34.8349 -7.47976 35.6201C-7.47464 35.9239 -7.59541 36.0254 -7.89154 36.0207C-8.70229 36.0079 -9.51347 36.0169 -10.3242 36.0169C-15.2156 36.0169 -20.107 36.0173 -24.9979 36.016C-25.1904 36.016 -25.3832 36.0011 -25.5757 35.993C-25.5757 34.9629 -25.5757 33.9333 -25.5757 32.9032C-24.5059 32.7735 -23.4349 32.6544 -22.3672 32.5098C-21.6393 32.4108 -21.2429 31.9567 -21.1038 31.2463C-21.0538 30.9911 -21.0406 30.7376 -21.0406 30.4803C-21.0406 27.7165 -21.0402 24.9527 -21.0406 22.1894C-21.0406 21.0325 -21.0291 19.8753 -21.047 18.7189C-21.0637 17.6445 -21.5731 17.0718 -22.593 16.9476C-23.5864 16.8269 -24.5814 16.7189 -25.5757 16.6054C-25.5736 15.5758 -25.5735 14.5457 -25.5735 13.516Z" fill="#5F5F5F"/>
<path d="M31.8168 36.6881C31.1281 36.6185 30.4381 36.5601 29.7507 36.4773C26.765 36.1172 23.8715 35.4421 21.269 33.8539C18.3217 32.0553 16.5222 29.4673 16.1455 26.0084C15.7725 22.5858 16.681 19.5531 19.2084 17.1162C20.7484 15.6308 22.614 14.6874 24.6319 14.0328C26.6092 13.391 28.6434 13.0526 30.7121 12.8593C32.5499 12.6878 34.3894 12.6729 36.2256 12.7373C39.5573 12.8542 42.837 13.3065 45.9238 14.6664C48.4188 15.7652 50.4803 17.3726 51.7233 19.8659C52.6275 21.6798 52.9573 23.6077 52.7909 25.6312C52.4145 30.2017 49.8095 33.0717 45.7732 34.8362C43.635 35.7711 41.3726 36.2426 39.0589 36.485C38.3958 36.5545 37.7323 36.6207 37.0692 36.6885C35.3184 36.6881 33.5676 36.6881 31.8168 36.6881ZM42.3757 24.698C42.4043 24.0221 42.3322 23.2809 42.2179 22.5435C41.8159 19.9444 40.4556 18.1539 37.8385 17.4981C35.6606 16.9523 33.4601 16.951 31.271 17.455C28.7654 18.0319 27.2719 19.6184 26.7654 22.1232C26.4023 23.9197 26.4112 25.7238 26.7932 27.5198C27.2997 29.9 28.7193 31.4319 31.0893 32.0143C33.3483 32.5695 35.6269 32.5708 37.8816 31.9968C40.1453 31.4208 41.5415 29.958 42.0724 27.6756C42.2951 26.7189 42.3932 25.7507 42.3757 24.698Z" fill="#5F5F5F"/>
<path d="M172.164 35.9158C172.01 35.9239 171.856 35.9396 171.703 35.9396C165.614 35.9409 159.526 35.9409 153.437 35.9405C152.831 35.9405 152.83 35.9396 152.83 35.323C152.83 34.6151 152.838 33.9072 152.827 33.1993C152.823 32.9237 152.924 32.8208 153.203 32.7931C154.034 32.7112 154.862 32.5977 155.69 32.4965C155.91 32.4696 156.119 32.4073 156.315 32.3088C156.878 32.0263 157.054 31.5689 156.785 30.9971C156.494 30.3771 156.059 29.8449 155.686 29.274C155.556 29.0743 155.341 29.134 155.155 29.1336C152.015 29.1306 148.874 29.1315 145.733 29.1315C144.562 29.1315 143.39 29.1383 142.219 29.1268C141.945 29.1242 141.763 29.2032 141.622 29.4481C141.32 29.9717 140.986 30.4769 140.678 30.9975C140.312 31.6158 140.489 32.1453 141.148 32.4496C141.691 32.7005 142.286 32.6194 142.853 32.718C143.118 32.7641 143.389 32.7705 143.658 32.7961C144.225 32.8503 144.225 32.8507 144.226 33.4327C144.226 34.089 144.227 34.7457 144.225 35.402C144.225 35.9379 144.223 35.9401 143.694 35.9401C140.245 35.9409 136.795 35.9405 133.345 35.9405C132.315 35.9405 131.285 35.9298 130.256 35.9465C129.92 35.952 129.8 35.8424 129.809 35.5031C129.828 34.744 129.823 33.9845 129.811 33.2249C129.806 32.9377 129.9 32.8195 130.202 32.791C131.059 32.7099 131.912 32.5942 132.766 32.4884C133.503 32.3971 134.002 31.9691 134.38 31.3572C135.716 29.1882 137.058 27.0218 138.398 24.855C139.596 22.9177 140.796 20.9813 141.992 19.0432C142.154 18.7816 142.325 18.5252 142.335 18.1962C142.356 17.563 141.944 17.0838 141.312 17.0176C140.098 16.8909 138.886 16.7509 137.671 16.6378C137.385 16.6114 137.297 16.4992 137.301 16.2286C137.311 15.4695 137.319 14.7095 137.298 13.9504C137.288 13.598 137.406 13.4832 137.761 13.4849C140.181 13.4973 142.601 13.4913 145.02 13.4913C148.058 13.4913 151.096 13.5135 154.134 13.4793C155.226 13.467 155.998 13.8958 156.582 14.791C159.162 18.7471 161.754 22.6958 164.341 26.6472C165.356 28.1978 166.374 29.746 167.382 31.3017C167.914 32.1236 168.664 32.5174 169.634 32.5776C170.479 32.6301 171.321 32.7406 172.165 32.8255C172.164 33.856 172.164 34.8861 172.164 35.9158ZM148.577 25.0765C149.876 25.0765 151.175 25.0773 152.475 25.0743C152.571 25.0739 152.702 25.1238 152.757 25.0154C152.811 24.9109 152.703 24.8277 152.65 24.7458C151.309 22.7022 149.965 20.6617 148.628 18.6156C148.474 18.3793 148.395 18.3293 148.224 18.6114C146.98 20.6553 145.722 22.6903 144.471 24.7287C144.274 25.0496 144.288 25.0752 144.679 25.0756C145.978 25.0777 147.277 25.0765 148.577 25.0765Z" fill="#5F5F5F"/>
<path d="M83.3109 29.9926C83.3109 26.9489 83.3182 24.0144 83.3066 21.0803C83.3032 20.194 83.3834 19.3043 83.2494 18.4211C83.1027 17.4511 82.6423 17.0364 81.6728 16.9374C80.8168 16.8499 79.9646 16.7253 79.1082 16.6387C78.8403 16.6114 78.7494 16.4992 78.7652 16.2457C78.8176 15.3991 78.8654 14.5521 78.9094 13.7046C78.9192 13.5169 78.9947 13.4162 79.1893 13.4192C79.2921 13.4204 79.3954 13.4162 79.4983 13.4162C83.9134 13.4162 88.3286 13.4157 92.7437 13.4162C93.3202 13.4162 93.3211 13.4175 93.3215 13.9888C93.3224 14.7095 93.3143 15.4307 93.3249 16.1514C93.3288 16.4194 93.2426 16.538 92.9575 16.567C92.1784 16.6459 91.4043 16.7769 90.6247 16.852C89.2981 16.9796 88.8069 17.4887 88.7707 18.8273C88.7668 18.969 88.7694 19.1106 88.7694 19.2519C88.7694 24.6194 88.7694 29.987 88.7694 35.3546C88.7694 35.9392 88.7685 35.9405 88.1733 35.9405C84.6721 35.9405 81.171 35.9277 77.6698 35.9473C76.6457 35.9533 75.8955 35.5782 75.2713 34.7504C71.5282 29.7873 67.7556 24.8469 63.9925 19.8992C63.9097 19.7904 63.8201 19.6871 63.7241 19.5698C63.634 19.7123 63.6729 19.8433 63.6729 19.9657C63.6703 23.338 63.6686 26.7108 63.6741 30.083C63.6746 30.4551 63.7019 30.8294 63.748 31.1989C63.8504 32.0139 64.4072 32.4777 65.3161 32.5708C66.1721 32.6582 67.0238 32.7833 67.8798 32.8695C68.1516 32.8968 68.225 33.0192 68.2224 33.2663C68.2148 34.0386 68.2058 34.8114 68.2263 35.5829C68.2352 35.9273 68.1068 36.0237 67.7761 36.022C65.5751 36.0113 63.3737 36.0164 61.1728 36.0164C58.8557 36.0164 56.5387 36.01 54.2221 36.0228C53.8615 36.025 53.7152 35.9256 53.7275 35.5454C53.7514 34.7995 53.742 34.0523 53.7309 33.306C53.7267 33.0252 53.8086 32.8938 54.1158 32.8648C54.9466 32.7862 55.7728 32.6557 56.6031 32.5742C57.7416 32.4624 58.2737 31.8756 58.2818 30.6365C58.2929 28.9117 58.2852 27.187 58.2852 25.4618C58.2852 23.3508 58.2852 21.2399 58.2852 19.1285C58.2852 18.9997 58.2891 18.8708 58.2814 18.7424C58.2122 17.545 57.6972 17.0355 56.5144 16.9284C55.6831 16.8533 54.857 16.7253 54.0271 16.6306C53.8167 16.6067 53.7352 16.5051 53.7356 16.305C53.7378 15.4682 53.7378 14.6319 53.7365 13.7951C53.7361 13.5873 53.8312 13.4862 54.0416 13.4926C54.1444 13.496 54.2477 13.4913 54.3505 13.4913C59.2419 13.4913 64.1333 13.4913 69.0247 13.4913C69.2308 13.4913 69.4369 13.4887 69.6425 13.4964C70.4307 13.5246 71.0575 13.8139 71.5538 14.4727C75.3549 19.5207 79.1757 24.5542 82.9904 29.5919C83.0737 29.7028 83.1633 29.8087 83.3109 29.9926Z" fill="#5F5F5F"/>
<path d="M107.47 35.9405C102.792 35.9405 98.9307 35.9409 95.0685 35.9401C94.5159 35.9401 94.5151 35.9384 94.5142 35.3858C94.5134 34.6651 94.5228 33.9439 94.51 33.2232C94.5048 32.9347 94.6013 32.8221 94.9021 32.7905C95.8601 32.6902 96.8176 32.5763 97.7683 32.4244C98.4643 32.3135 98.8684 31.8803 98.9785 31.1955C99.0335 30.8541 99.063 30.5046 99.0638 30.1586C99.0698 26.4509 99.0659 22.7436 99.0706 19.0359C99.0711 18.7116 99.0374 18.392 98.9823 18.0767C98.8872 17.5335 98.5611 17.1789 98.0303 17.0193C97.3224 16.8064 96.5829 16.8119 95.8588 16.7112C94.5829 16.5341 94.8509 16.7987 94.8227 15.5962C94.8091 15.0172 94.8283 14.4377 94.8176 13.8582C94.8129 13.5988 94.9017 13.4674 95.1735 13.4917C95.2375 13.4977 95.3019 13.4917 95.3664 13.4917C102.781 13.4921 110.197 13.4768 117.612 13.5024C120.267 13.5118 122.867 13.9193 125.329 14.9749C127.913 16.0831 129.922 17.804 130.968 20.4868C131.643 22.2196 131.821 24.0199 131.653 25.8693C131.506 27.4852 131.072 29.0013 130.221 30.3869C129.172 32.0958 127.679 33.3111 125.895 34.1773C123.735 35.2253 121.431 35.7361 119.047 35.8569C114.918 36.0655 110.785 35.8722 107.47 35.9405ZM107.844 24.7526C107.844 26.8499 107.844 28.9471 107.844 31.0448C107.844 31.5876 107.845 31.5898 108.367 31.5898C110.658 31.5906 112.948 31.594 115.239 31.5868C115.778 31.5851 116.316 31.5782 116.855 31.5044C119.103 31.198 120.424 30.0532 120.939 27.8449C121.388 25.9175 121.358 23.9674 121.031 22.0238C120.848 20.9369 120.447 19.9431 119.616 19.1729C118.677 18.302 117.511 17.976 116.284 17.9525C113.634 17.9026 110.983 17.9325 108.332 17.9099C107.933 17.9064 107.834 18.0396 107.837 18.4215C107.853 20.532 107.844 22.6425 107.844 24.7526Z" fill="#5F5F5F"/>
</svg>
