<svg width="225" height="19" viewBox="0 0 225 19" fill="none" xmlns="http://www.w3.org/2000/svg">
<path d="M213.945 11.7587L215.252 11.6532C215.788 11.611 216.324 11.5477 216.817 11.4844C218.103 11.2946 219.196 10.9571 220.096 10.493C220.439 10.3242 220.61 10.1976 220.996 9.92341C222.132 9.12181 222.711 8.04597 222.797 6.56933C222.818 6.274 222.797 6.04196 222.775 5.78882C222.711 4.86065 222.497 4.08014 222.111 3.46839C221.661 2.73007 221.018 2.1605 220.16 1.73861C219.303 1.31671 218.21 1.00029 216.945 0.810434C216.945 0.810434 215.081 0.515106 212.316 0.515106H191.182V18.0449H197.826V11.8852H206.85L217.01 18.066H224.297L213.945 11.7587ZM210.922 2.56131C210.965 2.56131 210.987 2.56131 211.03 2.56131C211.78 2.5824 212.423 2.6035 212.98 2.66678C213.687 2.75116 214.287 2.89882 214.759 3.15196C215.252 3.4051 215.638 3.78481 215.831 4.2489C216.024 4.6497 216.109 5.15597 216.131 5.76772C216.131 5.80991 216.152 6.65371 216.109 7.07561C216.088 7.4975 215.981 7.96159 215.831 8.27801C215.681 8.61553 215.466 8.88976 215.166 9.12181C215.081 9.18509 214.995 9.24837 214.909 9.29056C214.48 9.52261 213.945 9.67027 213.259 9.75465C212.637 9.81794 211.844 9.86013 210.901 9.86013H197.783V2.56131H210.922Z" fill="#5F5F5F"/>
<path d="M21.9836 0.536156V8.78424C21.9836 11.2523 21.062 13.0876 19.2401 14.2267C17.6754 15.2182 15.4035 15.7244 12.5099 15.7244H0.164062V18.066H10.4094C13.2601 18.066 15.875 17.9605 18.1684 17.7496C20.419 17.5386 22.3266 17.1167 23.8698 16.4839C25.3702 15.8721 26.549 14.9861 27.3635 13.847C28.0922 12.8134 28.4995 11.4633 28.5852 9.7968C28.5852 9.64913 28.6067 9.45928 28.6067 9.24833V0.536156H21.9836Z" fill="#5F5F5F"/>
<path d="M98.0526 10.029V15.7246H87.9144C82.5988 15.7246 79.5123 14.037 78.6764 10.7462C78.3335 9.37501 78.5478 8.06713 78.6764 7.58195C79.4909 4.24896 82.5345 2.62466 87.9144 2.62466H103.775V0.53627H89.9935C87.0999 0.53627 84.485 0.641744 82.1916 0.831598C79.9625 1.02145 78.0334 1.44335 76.4902 2.0551C74.9684 2.66685 73.811 3.53174 73.0179 4.67086C72.2463 5.7467 71.8605 7.20224 71.8176 8.99531C71.8176 9.0375 71.8176 9.07969 71.8176 9.14297C71.8176 9.22735 71.8176 9.31173 71.8176 9.4172C71.8391 11.2736 72.2463 12.7713 73.0394 13.8682C73.8538 15.0073 75.0327 15.8933 76.5331 16.5051C78.0763 17.1379 80.0053 17.5598 82.2344 17.7708C84.5278 17.9817 87.1213 18.0872 89.9935 18.0872H104.676V10.029H98.0526Z" fill="#5F5F5F"/>
<path d="M53.7696 0.53627H46.9322L31.6071 18.0661H35.5723L39.0231 14.1214H58.2921L61.7429 18.0661H69.1161L53.7696 0.53627ZM48.6469 3.10984L56.6417 12.2439H40.6735L48.6469 3.10984Z" fill="#5F5F5F"/>
<path d="M163.082 0.53627L147.757 18.0661H151.722L155.173 14.1003H174.42L177.871 18.0661H185.266L169.941 0.53627H163.082ZM172.813 12.2439H156.823L164.818 3.10984L172.813 12.2439Z" fill="#5F5F5F"/>
<path d="M138.133 0.53627V9.4172C138.133 10.1766 138.026 10.8727 137.876 11.5056C137.019 14.7331 133.954 16.3785 128.681 16.3996H128.016C122.722 16.3996 119.636 14.712 118.8 11.4423C118.65 10.8306 118.564 10.1555 118.564 9.4383V0.53627H111.92V9.69143C111.92 11.59 112.327 13.151 113.141 14.2901C113.656 14.9862 114.299 15.6191 115.07 16.1254C115.542 16.4207 116.056 16.6949 116.635 16.927C117.214 17.159 117.835 17.37 118.521 17.5387C119.657 17.834 120.943 18.045 122.358 18.1927C124.137 18.3614 126.152 18.4669 128.338 18.4669C130.546 18.4669 132.539 18.3614 134.318 18.1927C135.711 18.0661 136.997 17.8551 138.133 17.5598C138.819 17.3911 139.441 17.1801 140.019 16.9481C140.598 16.716 141.112 16.4629 141.584 16.1465C142.377 15.6402 143.02 15.0284 143.513 14.3112C144.328 13.1721 144.735 11.6111 144.735 9.71253V0.53627H138.133Z" fill="#5F5F5F"/>
</svg>
