<svg width="80" height="67" viewBox="0 0 80 67" fill="none" xmlns="http://www.w3.org/2000/svg">
<path d="M11.4815 23.0483C15.5809 11.1631 26.9146 3.13253 39.6952 3.13253C52.4758 3.13253 63.8095 11.1631 67.9089 23.0483V23.1286H76.9116V22.0846L73.2141 21.6831C70.883 21.4422 70.4007 20.3982 69.7577 19.1133L69.5969 18.7921C64.2114 7.38872 52.4758 0.000610352 39.6952 0.000610352C26.9146 0.000610352 15.179 7.38872 9.7131 18.7921L9.55234 19.1133C8.98968 20.3982 8.42701 21.4422 6.17634 21.6831L2.39844 22.0846V23.1286H11.4011L11.4815 23.0483Z" fill="#5F5F5F"/>
<path d="M67.9893 42.8838V42.9641C63.8095 54.8493 52.4758 62.8799 39.6952 62.8799C26.9146 62.8799 15.5809 54.8493 11.4815 42.9641V42.8838H2.39844V43.9278L6.17634 44.3293C8.50739 44.5702 8.98968 45.6142 9.63272 46.8991L9.79349 47.2203C15.0986 58.6237 26.9146 66.0118 39.6952 66.0118C52.4758 66.0118 64.2114 58.6237 69.6773 47.2203L69.8381 46.8991C70.4811 45.6142 70.9634 44.6505 73.2944 44.3293L77.0723 43.9278V42.8838H67.9893Z" fill="#5F5F5F"/>
<path d="M18.5552 28.8303H16.4653V37.9851H18.5552V28.8303Z" fill="#5F5F5F"/>
<path d="M11.5617 37.9048V28.8303H9.55216V35.6562L2.88054 28.8303H0.30835V37.9048H2.31787V31.0788L9.06987 37.9048H11.5617Z" fill="#5F5F5F"/>
<path d="M57.2983 28.8303L51.6716 37.9851H54.0831L55.0476 36.379H61.5585L62.5231 37.9851H64.9345L59.3078 28.8303H57.2983ZM60.5939 34.6123H56.0926L58.3432 30.9182L60.5939 34.6123Z" fill="#5F5F5F"/>
<path d="M45.9649 36.0579C45.8845 36.0579 45.6434 36.0579 45.563 36.0579H37.123V37.9049H45.6434C45.7237 37.9049 46.206 37.9049 46.2864 37.9049C48.0548 37.7443 48.7782 36.3791 48.7782 35.0942C48.7782 33.8093 47.9744 32.5244 46.3668 32.3638C46.1256 32.3638 45.8845 32.3638 45.7237 32.3638H40.1775C39.9363 32.3638 39.7755 32.3638 39.5344 32.2835C39.1325 32.2032 38.8914 31.882 38.9717 31.4804C38.9717 31.0789 39.2129 30.7577 39.6148 30.6774C39.7756 30.5971 40.0167 30.5971 40.1775 30.5971H48.2155V28.75H40.0971C39.8559 28.75 39.5344 28.75 39.2933 28.8304C37.9268 28.991 36.8818 30.1152 36.8818 31.4804C36.8818 32.6047 37.6053 33.9699 39.2129 34.1305C39.5344 34.1305 39.7756 34.2108 40.0971 34.1305H45.4826C45.563 34.1305 45.8041 34.1305 45.8845 34.1305C46.3668 34.2108 46.6883 34.6124 46.6883 35.0139C46.6883 35.576 46.3668 35.9775 45.9649 36.0579Z" fill="#5F5F5F"/>
<path d="M31.1746 36.0578C31.0942 36.0578 30.8531 36.0578 30.7727 36.0578H22.4131V37.9048H30.8531C30.9335 37.9048 31.4157 37.9048 31.4961 37.9048C33.2645 37.7442 34.0683 36.379 34.0683 35.1744C34.0683 33.9698 33.2645 32.6046 31.6569 32.444C31.4157 32.444 31.1746 32.444 31.0138 32.444H25.4676C25.2264 32.444 25.0656 32.444 24.8245 32.3637C24.4226 32.2834 24.1815 31.9622 24.2618 31.5606C24.2618 31.1591 24.503 30.8379 24.9049 30.7576C25.0656 30.6773 25.3068 30.6773 25.4676 30.6773H33.5056V28.8303H25.3068C25.0656 28.8303 24.7441 28.8303 24.503 28.9106C23.1365 29.0712 22.0916 30.1954 22.0916 31.5606C22.0916 32.6849 22.815 34.0501 24.4226 34.2107C24.7441 34.2107 24.9853 34.291 25.3068 34.2107H30.6923C30.7727 34.2107 31.0138 34.2107 31.0942 34.2107C31.5765 34.291 31.898 34.6926 31.898 35.0941C31.9784 35.5759 31.5765 35.9774 31.1746 36.0578Z" fill="#5F5F5F"/>
<path d="M79.0817 37.9048V28.8303H77.0722V35.6562L70.4006 28.8303H67.8284V37.9048H69.8379V31.0788L76.5899 37.9048H79.0817Z" fill="#5F5F5F"/>
<path d="M73.857 60.4707C74.8216 60.4707 75.6254 61.2738 75.6254 62.2374C75.6254 63.2011 74.8216 64.0042 73.857 64.0042C72.8924 64.0042 72.0886 63.2011 72.0886 62.2374C72.0886 61.7556 72.2494 61.3541 72.6513 60.9526C72.8924 60.6313 73.3747 60.3904 73.857 60.4707ZM73.857 63.6026C74.2589 63.6026 74.5804 63.442 74.8216 63.2011C75.0627 62.9602 75.2235 62.5587 75.2235 62.2374C75.2235 61.5147 74.5804 60.8723 73.857 60.9526C73.1336 60.9526 72.4905 61.595 72.4905 62.3178C72.4905 62.9602 73.0532 63.6026 73.857 63.6026ZM73.1336 63.1208V61.3541C73.3747 61.3541 73.5355 61.2738 73.7766 61.2738C74.0981 61.2738 74.5804 61.3541 74.5804 61.7556C74.5804 61.9965 74.4197 62.1571 74.1785 62.1571C74.3393 62.2375 74.4197 62.3981 74.5001 62.5587C74.5001 62.7193 74.5804 62.8799 74.6608 62.9602H74.2589C74.1785 62.7996 74.1785 62.639 74.0981 62.5587C74.0178 62.3178 73.857 62.3178 73.5355 62.3178V63.0405L73.1336 63.1208ZM73.5355 62.0768C73.857 62.0768 74.1785 62.0768 74.1785 61.8359C74.1785 61.6753 74.0981 61.595 73.7766 61.595C73.6962 61.595 73.6159 61.595 73.5355 61.595V62.0768Z" fill="#5F5F5F"/>
</svg>
