<svg width="18" height="15" viewBox="0 0 18 15" fill="none" xmlns="http://www.w3.org/2000/svg">
<path d="M8.76958 0.333374C8.9239 0.333374 9.07822 0.333374 9.23254 0.333374C9.27528 0.341836 9.31788 0.350452 9.36062 0.358453C10.3757 0.548773 11.07 1.50792 10.9123 2.52722C10.8023 3.23865 10.3957 3.73499 9.73609 4.0244C9.67436 4.05147 9.6526 4.08409 9.65275 4.1501C9.65461 4.97046 9.65399 5.79082 9.65414 6.61103C9.65414 6.71104 9.65661 6.71335 9.75954 6.71335C11.0092 6.71335 12.2588 6.71304 13.5085 6.71381C13.5861 6.71381 13.6623 6.70504 13.7378 6.68996C14.3467 6.56811 14.7597 6.02838 14.7561 5.46542C14.7534 5.03477 14.7537 4.60413 14.7582 4.17348C14.7591 4.08825 14.7307 4.04686 14.6523 4.01424C13.9386 3.71714 13.4188 2.97263 13.4852 2.11965C13.5328 1.50592 13.8134 1.02404 14.3123 0.666935C14.5745 0.47923 14.8719 0.378916 15.1893 0.333374C15.3386 0.333374 15.4876 0.333374 15.6369 0.333374C15.6467 0.336143 15.6563 0.340298 15.6663 0.341682C16.1977 0.41738 16.6267 0.668166 16.9538 1.09143C17.1673 1.36744 17.2844 1.68331 17.3344 2.0258C17.3344 2.17965 17.3344 2.33351 17.3344 2.48737C17.3318 2.49721 17.3282 2.50691 17.3265 2.51706C17.2041 3.24019 16.8014 3.7433 16.1278 4.03209C16.0727 4.05563 16.0583 4.08917 16.0586 4.1441C16.0603 4.46966 16.0615 4.79537 16.0586 5.12093C16.0568 5.3231 16.0686 5.52542 16.0458 5.72774C15.9815 6.29778 15.7528 6.79305 15.358 7.20708C14.8466 7.74342 14.2123 8.01159 13.4713 8.01436C12.2421 8.01882 11.0129 8.01559 9.78377 8.01559C9.6543 8.01559 9.6543 8.01575 9.6543 8.14791C9.6543 8.94781 9.65584 9.74771 9.65229 10.5476C9.65183 10.6381 9.67945 10.6809 9.76433 10.717C10.5466 11.049 11.019 11.8534 10.9216 12.6756C10.839 13.373 10.4774 13.8798 9.85646 14.2051C9.6563 14.3099 9.43964 14.3628 9.21741 14.3959C9.07343 14.3959 8.9293 14.3959 8.78532 14.3959C8.74241 14.388 8.69967 14.38 8.65677 14.3725C7.63964 14.1937 6.92837 13.2206 7.08794 12.2083C7.19951 11.5004 7.59751 11.0016 8.25353 10.7109C8.32698 10.6782 8.35029 10.6402 8.34998 10.5621C8.3472 9.75433 8.34828 8.94658 8.34828 8.13883C8.34828 8.01575 8.34812 8.01559 8.22498 8.01559C6.60723 8.01559 4.98948 8.01559 3.37158 8.01559C3.24597 8.01559 3.24566 8.01575 3.24566 8.13791C3.2455 8.94304 3.24674 9.74833 3.2438 10.5535C3.2435 10.6372 3.26834 10.6799 3.34766 10.7142C4.14149 11.0572 4.60522 11.8309 4.51124 12.6847C4.44149 13.3181 4.11896 13.8026 3.57343 14.1366C3.33979 14.2797 3.08192 14.3546 2.81294 14.3959C2.66371 14.3959 2.51464 14.3959 2.36541 14.3959C2.35306 14.3928 2.34087 14.3885 2.32837 14.3866C1.80059 14.3086 1.37359 14.0591 1.04843 13.6378C0.835163 13.3618 0.716953 13.0464 0.667725 12.7035C0.667725 12.5496 0.667725 12.3957 0.667725 12.2419C0.670811 12.2294 0.674669 12.2173 0.67683 12.2046C0.799669 11.4881 1.19967 10.9884 1.86618 10.7004C1.93192 10.6721 1.9438 10.6332 1.94365 10.5707C1.94257 8.43331 1.94242 6.29578 1.94442 4.1584C1.94442 4.08455 1.91927 4.05086 1.85198 4.02301C1.4472 3.855 1.13347 3.58098 0.911706 3.20311C0.781459 2.98109 0.70862 2.73969 0.667725 2.48737C0.667725 2.33351 0.667725 2.17965 0.667725 2.0258C0.67112 2.00826 0.674978 1.99087 0.67791 1.97333C0.7722 1.39283 1.06587 0.941416 1.56063 0.621086C1.806 0.462152 2.07822 0.377069 2.36526 0.333374C2.51448 0.333374 2.66356 0.333374 2.81279 0.333374C2.85816 0.341682 2.90337 0.349991 2.94874 0.358453C3.92745 0.540619 4.6347 1.44668 4.50862 2.47229C4.41896 3.20188 4.01402 3.71653 3.34118 4.01701C3.26803 4.04963 3.24319 4.0884 3.2435 4.16625C3.24597 4.97631 3.24488 5.78636 3.24504 6.59642C3.24504 6.71166 3.2472 6.7135 3.36078 6.7135C4.98578 6.7135 6.61078 6.7135 8.23578 6.7135C8.34751 6.7135 8.34797 6.71319 8.34797 6.60242C8.34812 5.79236 8.34674 4.98231 8.34998 4.17225C8.35029 4.08671 8.32189 4.04717 8.2438 4.01455C7.46093 3.68776 6.98794 2.89063 7.08115 2.05241C7.15383 1.39806 7.48547 0.908183 8.05075 0.573544C8.27251 0.442305 8.5168 0.374146 8.76958 0.333374Z" fill="#959595"/>
</svg>
