<svg width="279" height="227" viewBox="0 0 279 227" fill="none" xmlns="http://www.w3.org/2000/svg">
<path opacity="0.1" d="M128.68 227V118.53C128.68 68.6 117.956 27.2783 96.5098 -5.43477C74.2053 -38.1479 42.0354 -59.6696 0 -70V-24.8044C25.7359 -17.9174 44.1801 -5.00437 55.3323 13.9348C66.4845 32.0131 72.9185 55.687 74.6342 84.9565H25.736V227H128.68ZM279 227V118.53C279 68.6 268.277 27.2783 246.83 -5.43477C224.526 -38.1479 192.356 -59.6696 150.32 -70V-24.8044C176.056 -17.9174 194.5 -5.00437 205.653 13.9348C216.805 32.0131 223.239 55.687 224.954 84.9565H176.056V227H279Z" fill="#1572D3"/>
</svg>
